<svg xmlns="http://www.w3.org/2000/svg" width="256" height="256" viewBox="0 0 256 256">
  <!-- Background with rounded corners and shadow -->
  <rect x="8" y="8" width="240" height="240" rx="16" ry="16" fill="white" filter="url(#cardShadow)" />

  <defs>
    <!-- Purple gradient -->
    <linearGradient id="purpleGradient" x1="0%" y1="0%" x2="100%" y2="100%">
      <stop offset="0%" stop-color="#a855f7"/>
      <stop offset="100%" stop-color="#6b21a8"/>
    </linearGradient>

    <!-- Background shadow -->
    <filter id="cardShadow" x="-20%" y="-20%" width="150%" height="150%">
      <feDropShadow dx="0" dy="4" stdDeviation="6" flood-color="#000000" flood-opacity="0.25"/>
    </filter>

    <!-- Globe shadow -->
    <filter id="globeShadow" x="-50%" y="-50%" width="200%" height="200%">
      <feDropShadow dx="0" dy="2" stdDeviation="4" flood-color="#000000" flood-opacity="0.3"/>
    </filter>
  </defs>

  <!-- Globe outline with outer shadow -->
  <circle cx="128" cy="128" r="90" fill="none" stroke="url(#purpleGradient)" stroke-width="8" filter="url(#globeShadow)" />

  <!-- Globe grid (longitude + latitude) -->
  <g stroke="url(#purpleGradient)" stroke-width="2" fill="none">
    <!-- Longitude curves -->
    <ellipse cx="128" cy="128" rx="40" ry="90"/>
    <ellipse cx="128" cy="128" rx="70" ry="90"/>
    <!-- Central vertical line -->
    <line x1="128" y1="38" x2="128" y2="218"/>

    <!-- Latitude curves -->
    <!-- Equator -->
    <ellipse cx="128" cy="128" rx="90" ry="30"/>
    <!-- Northern latitude -->
    <ellipse cx="128" cy="128" rx="90" ry="60"/>
    <!-- Southern latitude -->
    <ellipse cx="128" cy="128" rx="90" ry="75"/>
  </g>

  <!-- Map Pin (in front of grid) -->
  <path d="M128 90
           C112 90, 100 102, 100 118
           C100 140, 128 170, 128 170
           C128 170, 156 140, 156 118
           C156 102, 144 90, 128 90Z"
        fill="white" stroke="url(#purpleGradient)" stroke-width="6" />
  <circle cx="128" cy="118" r="10" fill="white" stroke="url(#purpleGradient)" stroke-width="5" />
</svg>